<?xml version="1.0" encoding="utf-8"?>
<!-- Generator: Adobe Illustrator 20.1.0, SVG Export Plug-In . SVG Version: 6.00 Build 0)  -->
<svg version="1.1" id="Layer_1" xmlns="http://www.w3.org/2000/svg" xmlns:xlink="http://www.w3.org/1999/xlink" x="0px" y="0px"
	 viewBox="0 0 60 60" enable-background="new 0 0 60 60" xml:space="preserve">
<g id="o9ltbi.tif">
	<g>
		<path fill-rule="evenodd" clip-rule="evenodd" d="M31.711,49.764c-0.238,0.338-0.478,0.675-0.711,1.016
			c-0.057,0.083-0.076,0.191-0.128,0.277c-0.196,0.319-0.376,0.708-0.86,0.482c-0.422-0.198-0.606-0.869-0.31-1.223
			c0.663-0.791,1.334-1.581,2.064-2.309c0.329-0.328,0.467-0.638,0.414-1.075c-0.152-1.283-0.301-2.567-0.435-3.852
			c-0.028-0.268-0.009-0.543,0.018-0.812c0.037-0.374-0.055-0.525-0.479-0.465c-1.175,0.166-2.353,0.33-3.536,0.414
			c-1.232,0.088-2.483-0.022-3.7,0.142c-1.156,0.156-2.262-0.081-3.39-0.108c-0.23-0.006-0.509,0.108-0.688,0.26
			c-0.638,0.532-1.288,0.701-2.113,0.42c-1.417-0.48-2.866-0.869-4.157-1.656c-0.33-0.2-0.633-0.455-0.913-0.723
			c-1.492-1.42-2.75-3.022-3.436-4.982c-0.288-0.822-0.434-1.719-0.494-2.592c-0.07-0.994,0.375-1.895,0.897-2.719
			c0.811-1.283,1.941-2.261,3.165-3.135c0.899-0.641,1.76-1.35,2.717-1.89c1.071-0.604,2.229-1.052,3.349-1.569
			c0.431-0.199,0.847-0.443,1.295-0.589c0.444-0.144,0.92-0.191,1.381-0.279c0.199-0.038,0.398-0.097,0.598-0.097
			c0.463-0.001,0.927,0.018,1.389,0.048c0.404,0.026,0.806,0.08,1.281,0.129c-0.649-1.755-0.261-3.354,0.167-4.881
			c0.324-1.156,0.992-2.224,1.566-3.299c0.35-0.657,0.655-1.292,0.631-2.064c-0.008-0.258,0.129-0.576,0.304-0.775
			c0.536-0.609,1.134-1.164,1.688-1.759c0.951-1.019,2.237-1.523,3.38-2.246c0.858-0.542,1.845-0.674,2.788-0.917
			c0.588-0.152,1.236-0.086,1.857-0.089c0.338-0.002,0.676,0.08,1.016,0.084c1.414,0.019,2.421,0.771,3.281,1.797
			c0.217,0.259,0.419,0.535,0.665,0.763c0.956,0.881,1.362,2.088,1.941,3.195c0.528,1.009,0.567,2.125,0.722,3.213
			c0.057,0.406,0.231,0.582,0.623,0.67c1.391,0.315,2.775,0.655,4.156,1.003c0.223,0.056,0.472,0.159,0.615,0.322
			c0.117,0.133,0.197,0.458,0.116,0.576c-0.236,0.343-0.521,0.684-0.859,0.92c-0.917,0.641-1.877,1.22-2.809,1.842
			c-0.177,0.118-0.342,0.295-0.441,0.483c-0.238,0.451-0.634,0.605-1.092,0.616c-0.18,0.005-0.435-0.069-0.525-0.198
			c-0.09-0.13-0.07-0.395-0.002-0.562c0.07-0.176,0.236-0.332,0.393-0.454c0.902-0.696,1.815-1.378,2.721-2.068
			c0.143-0.108,0.271-0.237,0.417-0.367c-0.765-0.74-1.709-0.806-2.604-0.789c-0.827,0.016-1.385-0.414-1.955-0.842
			c-0.193-0.146-0.301-0.545-0.279-0.816c0.135-1.768-0.441-3.323-1.418-4.737c-0.559-0.806-1.187-1.572-1.859-2.285
			c-0.566-0.599-1.27-0.99-2.162-0.984c-0.763,0.005-1.525-0.103-2.289-0.152c-0.133-0.009-0.281-0.013-0.402,0.034
			c-1.411,0.543-2.821,1.098-4.064,1.977c-0.457,0.323-0.773,0.787-0.829,1.394c-0.016,0.17-0.153,0.418-0.296,0.474
			c-0.967,0.377-1.292,1.172-1.712,2.057c-0.486,1.024-0.905,2.073-1.385,3.094c-0.469,0.999-0.703,2.012-0.813,3.077
			c-0.047,0.454-0.034,0.916-0.01,1.372c0.024,0.467-0.109,0.827-0.512,1.091c-0.127,0.083-0.272,0.233-0.293,0.369
			c-0.11,0.729-0.5,1.006-1.246,0.888c-0.787-0.126-1.577-0.275-2.37-0.309c-0.417-0.018-0.869,0.13-1.259,0.307
			c-1.126,0.509-2.258,1.017-3.332,1.625c-0.974,0.551-1.837,1.298-2.815,1.837c-1.067,0.587-1.89,1.427-2.743,2.254
			c-0.959,0.931-1.377,2.109-1.622,3.377c-0.007,0.033-0.019,0.072-0.007,0.1c0.535,1.214,0.322,2.697,1.364,3.734
			c0.21,0.209,0.306,0.527,0.468,0.787c0.713,1.145,1.616,2.036,2.875,2.637c1.153,0.55,2.275,1.146,3.517,1.472
			c0.276,0.073,0.567,0.089,0.984,0.15c-0.14-0.283-0.202-0.409-0.268-0.544c0.029-0.034,0.055-0.093,0.094-0.104
			c0.208-0.064,0.42-0.165,0.631-0.165c0.969,0,1.938,0.032,2.907,0.048c0.424,0.006,0.851,0.021,1.273-0.01
			c0.997-0.072,1.99-0.176,2.986-0.254c1.474-0.114,2.955-0.159,4.42-0.345c1.04-0.132,2.048-0.511,3.088-0.662
			c1.793-0.261,3.601-0.438,5.403-0.635c0.326-0.035,0.509-0.102,0.452-0.493c-0.016-0.106,0.182-0.323,0.316-0.36
			c0.96-0.26,1.975-0.376,2.884-0.751c1.501-0.62,3.045-1.263,4.074-2.612c0.889-1.166,1.72-2.396,1.676-3.959
			c-0.034-1.219-0.058-2.447-0.228-3.65c-0.152-1.08-0.958-1.852-1.612-2.675c-0.307-0.385-0.639-0.75-0.953-1.13
			c-0.218-0.262-0.32-0.599-0.041-0.815c0.146-0.111,0.581-0.079,0.708,0.057c0.578,0.614,1.141,1.255,1.622,1.947
			c1.225,1.76,1.84,3.724,1.631,5.875c-0.338,3.456-2.098,6.187-5.575,7.324c-0.959,0.313-1.738,0.891-2.562,1.418
			c-0.498,0.317-1.026,0.593-1.559,0.851c-0.488,0.235-0.788,0.553-0.789,1.13c-0.004,1.53-0.076,3.062-0.021,4.588
			c0.023,0.629,0.135,1.231-0.077,1.855c-0.04,0.118,0.261,0.434,0.464,0.529c0.263,0.124,0.576,0.184,0.777-0.209
			c0.312-0.613,0.77-0.754,1.229-0.433c0.379,0.264,0.449,0.714,0.141,1.061c-0.561,0.63-1.293,0.827-2.084,0.649
			c-0.606-0.137-1.15-0.362-1.693,0.184c-0.141,0.142-0.604,0.181-0.73,0.063c-0.168-0.154-0.159-0.509-0.206-0.78
			c-0.013-0.074,0.028-0.172,0.075-0.239c1.291-1.894,1.254-4.022,1.102-6.172c-0.029-0.423-0.045-0.848-0.055-1.271
			c-0.01-0.49-0.168-0.679-0.65-0.599c-0.701,0.117-1.385,0.344-2.086,0.45c-0.869,0.131-1.753,0.155-2.621,0.284
			c-0.645,0.098-0.632,0.162-0.56,0.82c0.167,1.521,0.311,3.045,0.462,4.567c0.057,0.563,0.289,1.126-0.029,1.695
			c-0.053,0.095,0.049,0.344,0.154,0.444c0.291,0.279,0.607,0.543,0.941,0.769c0.375,0.253,0.539,0.581,0.34,0.88
			c-0.243,0.364-0.557,0.328-0.884,0.106c-0.378-0.256-0.72-0.455-1.022,0.14c-0.15,0.297-0.519,0.202-0.666-0.139
			c-0.055-0.122-0.072-0.262-0.103-0.394c-0.031-0.127-0.059-0.256-0.088-0.383C31.812,49.807,31.762,49.785,31.711,49.764z"/>
		<path fill-rule="evenodd" clip-rule="evenodd" d="M25.822,32.999c0.152,0.013,0.31,0.003,0.455,0.044
			c0.694,0.197,1.285,0.006,1.779-0.48c0.346-0.343,0.751-0.408,1.174-0.281c0.141,0.043,0.337,0.324,0.305,0.439
			c-0.113,0.404-0.274,0.808-0.491,1.166c-0.424,0.697-0.103,1.467,0.704,1.631c1.444,0.295,2.503-0.399,3.434-1.363
			c0.276-0.285,0.472-0.661,0.661-1.019c0.197-0.37,0.459-0.567,0.889-0.556c0.428,0.01,0.521,0.309,0.606,0.633
			c0.245,0.943,0.83,1.662,1.532,2.295c0.592,0.533,1.404,0.463,1.949-0.113c0.609-0.645,0.855-1.455,1.083-2.277
			c0.289-1.049,0.566-2.102,0.854-3.15c0.045-0.163,0.08-0.371,0.195-0.462c0.164-0.13,0.43-0.27,0.592-0.218
			c0.13,0.042,0.275,0.387,0.234,0.554c-0.26,1.072-0.629,2.121-0.845,3.2c-0.204,1.018-0.438,2.021-1.099,2.821
			c-0.439,0.535-1.004,1.025-1.612,1.349c-0.573,0.305-1.226,0.026-1.689-0.398c-0.636-0.582-1.229-1.216-1.78-1.879
			c-0.318-0.381-0.533-0.377-0.855-0.049c-0.37,0.374-0.779,0.709-1.153,1.079c-1.269,1.253-3.934,0.991-5.019-0.116
			c-0.134-0.138-0.243-0.328-0.296-0.514c-0.25-0.884-0.552-1.105-1.471-1.086c-0.336,0.008-0.68-0.02-1.009-0.086
			c-1.221-0.249-1.635-1.311-0.945-2.344c0.723-1.081,1.617-1.958,2.792-2.545c0.423-0.211,0.781-0.56,1.212-0.744
			c0.601-0.255,1.239-0.425,1.87-0.604c0.129-0.037,0.316,0.01,0.433,0.086c0.112,0.072,0.213,0.227,0.229,0.357
			c0.008,0.068-0.167,0.183-0.279,0.236c-1.056,0.5-2.173,0.9-3.156,1.516c-0.728,0.456-1.307,1.165-1.897,1.812
			c-0.149,0.164-0.188,0.563-0.095,0.771c0.088,0.195,0.419,0.279,0.643,0.414C25.777,33.077,25.799,33.037,25.822,32.999z"/>
		<path fill-rule="evenodd" clip-rule="evenodd" d="M39.307,17.03c-0.183,0.789-0.31,1.597-0.562,2.363
			c-0.252,0.765-0.777,0.83-1.338,0.244c-0.83-0.867-0.873-2.767-0.07-3.496c0.338-0.307,0.718-0.533,1.196-0.32
			C39.014,16.036,39.246,16.443,39.307,17.03z"/>
	</g>
</g>
</svg>
